<?xml version="1.0" encoding="utf-8"?><svg viewBox="0 0 20 20" xmlns="http://www.w3.org/2000/svg" xmlns:xlink="http://www.w3.org/1999/xlink"><style>:root>svg{display:none}:root>svg:target{display:block}</style><svg viewBox="0 0 16 16" id="arrow" xmlns="http://www.w3.org/2000/svg"><path d="M4 1l8 7-8 6.5"/></svg><svg viewBox="0 0 16 17" id="bag" xmlns="http://www.w3.org/2000/svg"><path d="M1.255 7.566a2.5 2.5 0 012.492-2.697h8.506a2.5 2.5 0 012.492 2.697l-.525 6.631a2.5 2.5 0 01-2.492 2.303H4.272a2.5 2.5 0 01-2.492-2.303l-.525-6.631z"/><path d="M4 9.5S3.783 1 8 1s4 8.5 4 8.5"/></svg><svg viewBox="0 0 20 20" id="clock" xmlns="http://www.w3.org/2000/svg"><circle cx="10" cy="10" r="7"/><path d="M9.554 5.5v5.206L13.5 13"/></svg><svg viewBox="0 0 16 16" id="close" xmlns="http://www.w3.org/2000/svg"><path d="M3.7 12.066l8.35-8.183m.202 8.183l-8.35-8.183"/></svg><svg viewBox="0 0 20 20" id="closes" xmlns="http://www.w3.org/2000/svg"><circle cx="10" cy="10" r="7"/><path d="M6 8c.25 0 2.758-1.5 2.758-1.5h2.492S13.75 8 14 8"/><path d="M6.016 7.393v1.785l1.745.298v4.463m6.223-6.546v1.785l-1.745.298.009 4.463m-4.737-.501h4.986M8.509 6.5s.498 1.785 1.495 1.785c.997 0 1.496-1.785 1.496-1.785"/></svg><svg viewBox="0 0 20 20" id="desc" xmlns="http://www.w3.org/2000/svg"><circle cx="10" cy="10" r="7"/><path d="M6 8c.25 0 2.758-1.5 2.758-1.5h2.492S13.75 8 14 8"/><path d="M6.016 7.393v1.785l1.745.298v4.463m6.223-6.546v1.785l-1.745.298.009 4.463m-4.737-.501h4.986M8.509 6.5s.498 1.785 1.495 1.785c.997 0 1.496-1.785 1.496-1.785"/></svg><svg viewBox="0 0 16 16" id="favorit" xmlns="http://www.w3.org/2000/svg"><path d="M7.9 3.095C6.7-2.521-2.59 1.904 1.76 7.602 6.113 13.3 8.4 15.49 8.4 15.49"/><path d="M7.894 3.095c1.2-5.616 10.837-1.191 6.485 4.507C10.028 13.3 7.7 15.5 7.7 15.5"/><path d="M7.391 2.708h1.013l-.02.533H7.39v-.533z"/></svg><svg viewBox="0 0 14 10" id="pay" xmlns="http://www.w3.org/2000/svg"><rect x=".5" y=".5" width="13" height="9" rx=".5"/><path d="M1 3h12v2H1z"/></svg><svg viewBox="0 0 16 16" id="person" xmlns="http://www.w3.org/2000/svg"><path d="M0 0h16v16H0z"/><g clip-path="url(#ia)"><path d="M-1535-12H385v1242h-1920z"/><g filter="url(#ib)"><path d="M-1535-12H385v40h-1920z"/></g><circle cx="8.46" cy="4.189" r="3.689"/><path d="M.5 15.338h15m-15 .502c0-3.405 4.347-5.927 7.714-5.838 3.219.085 7.286 2.433 7.286 5.838"/></g><defs><clipPath id="ia"><path transform="translate(-1535 -12)" d="M0 0h1920v1242H0z"/></clipPath><filter id="ib" x="-1539" y="-14" width="1928" height="48" filterUnits="userSpaceOnUse" color-interpolation-filters="sRGB"><feFlood flood-opacity="0" result="BackgroundImageFix"/><feColorMatrix in="SourceAlpha" values="0 0 0 0 0 0 0 0 0 0 0 0 0 0 0 0 0 0 127 0" result="hardAlpha"/><feOffset dy="2"/><feGaussianBlur stdDeviation="2"/><feColorMatrix values="0 0 0 0 0 0 0 0 0 0 0 0 0 0 0 0 0 0 0.1 0"/><feBlend in2="BackgroundImageFix" result="effect1_dropShadow_0_1"/><feBlend in="SourceGraphic" in2="effect1_dropShadow_0_1" result="shape"/></filter></defs></svg></svg>